<svg xmlns="http://www.w3.org/2000/svg" version="1.1" xmlns:xlink="http://www.w3.org/1999/xlink" xmlns:svgjs="http://svgjs.dev/svgjs" width="1500" height="253" viewBox="0 0 1500 253"><g transform="matrix(1,0,0,1,-0.9090909090909918,0.7527428865096937)"><svg viewBox="0 0 396 67" data-background-color="#ffffff" preserveAspectRatio="xMidYMid meet" height="253" width="1500" xmlns="http://www.w3.org/2000/svg" xmlns:xlink="http://www.w3.org/1999/xlink"><g id="tight-bounds" transform="matrix(1,0,0,1,0.2400000000000091,-0.19934297785039234)"><svg viewBox="0 0 395.52 67.39868595570077" height="67.39868595570077" width="395.52"><g><svg viewBox="0 0 536.8759596432633 91.48648412510565" height="67.39868595570077" width="395.52"><g transform="matrix(1,0,0,1,141.35595964326325,12.643935215553675)"><svg viewBox="0 0 395.52 66.1986136939983" height="66.1986136939983" width="395.52"><g id="textblocktransform"><svg viewBox="0 0 395.52 66.1986136939983" height="66.1986136939983" width="395.52" id="textblock"><g><svg viewBox="0 0 395.52 66.1986136939983" height="66.1986136939983" width="395.52"><g transform="matrix(1,0,0,1,0,0)"><svg width="395.52" viewBox="3.15 -29.6 236.57999999999998 39.6" height="66.1986136939983" data-palette-color="#ffccea"><g class="wordmark-text-0" data-fill-palette-color="primary" id="text-0"><path d="M12.4-29.6L12.4-29.6Q18.6-29.6 21.2-26.85L21.2-26.85 20.2-25.75Q17.8-28.1 12.6-28.1L12.6-28.1Q4.8-28.1 4.8-21.9L4.8-21.9Q4.8-19.5 6.7-18.07 8.6-16.65 11.33-15.9 14.05-15.15 16.78-14.33 19.5-13.5 21.4-11.68 23.3-9.85 23.3-6.9L23.3-6.9Q23.3-3.45 20.45-1.4 17.6 0.65 12.2 0.65L12.2 0.65Q9.55 0.65 6.98-0.05 4.4-0.75 3.15-2.1L3.15-2.1 4.15-3.2Q6.7-0.85 12-0.85L12-0.85Q16.85-0.85 19.33-2.65 21.8-4.45 21.8-6.85L21.8-6.85Q21.8-9.35 19.9-10.9 18-12.45 15.28-13.23 12.55-14 9.83-14.83 7.1-15.65 5.2-17.4 3.3-19.15 3.3-22L3.3-22Q3.3-25.85 5.88-27.73 8.45-29.6 12.4-29.6ZM30.1-29L31.6-29 31.6-14.5Q31.6-7.05 33.97-4.03 36.35-1 40.5-1 44.65-1 47.02-4.03 49.4-7.05 49.4-14.5L49.4-14.5 49.4-29 50.9-29 50.9-14.5Q50.9 0.5 40.5 0.5 30.1 0.5 30.1-14.5L30.1-14.5 30.1-29ZM75.09-12.4L72.3-10.8 71.55-12.1 74.34-13.7Q77.8-15.6 77.8-19.75L77.8-19.75Q77.8-27.5 66-27.5L66-27.5 61.4-27.5 61.4 10 59.9 10 59.9-29 66-29Q72.59-29 75.95-26.58 79.3-24.15 79.3-19.75L79.3-19.75Q79.3-14.75 75.09-12.4L75.09-12.4ZM104.64-3.95L105.74-2.95Q102.99 0.5 96.74 0.5 90.49 0.5 87.79-3.05 85.09-6.6 85.09-14.5 85.09-22.4 87.79-25.95 90.49-29.5 96.74-29.5L96.74-29.5Q103.99-29.5 106.59-24.75L106.59-24.75 94.34-14.5 91.99-14.5 104.64-25.05Q102.44-28 96.74-28L96.74-28Q94.24-28 92.54-27.48 90.84-26.95 89.42-25.53 87.99-24.1 87.29-21.38 86.59-18.65 86.59-14.5 86.59-10.35 87.29-7.63 87.99-4.9 89.42-3.48 90.84-2.05 92.54-1.53 94.24-1 96.74-1L96.74-1Q102.44-1 104.64-3.95L104.64-3.95ZM125.94-14.55L125.94-14.55 132.74 0 131.09 0 124.09-15Q124.19-15.05 124.97-15.43 125.74-15.8 126.04-15.98 126.34-16.15 127.04-16.6 127.74-17.05 128.09-17.48 128.44-17.9 128.87-18.48 129.29-19.05 129.49-19.78 129.69-20.5 129.69-21.35L129.69-21.35Q129.69-24.5 126.69-26 123.69-27.5 119.24-27.5L119.24-27.5 115.24-27.5 115.24 0 113.74 0 113.74-29 119.24-29Q125.14-29 128.17-26.95 131.19-24.9 131.19-21.35L131.19-21.35Q131.19-19.05 129.64-17.28 128.09-15.5 125.94-14.55ZM140.54 0L139.04 0 139.04-14.5Q139.04-22.4 141.76-25.95 144.49-29.5 150.69-29.5L150.69-29.5Q157.94-29.5 160.54-24.75L160.54-24.75 150.09-16 160.74-16 160.74-14.5 145.94-14.5 158.59-25.05Q156.39-28 150.69-28L150.69-28Q148.19-28 146.49-27.48 144.79-26.95 143.36-25.53 141.94-24.1 141.24-21.38 140.54-18.65 140.54-14.5L140.54-14.5 140.54 0ZM170.89 0L170.89-1.5 187.19-1.5 176.94-25.65 166.04 0 164.44 0 176.94-29.5 189.44 0 170.89 0ZM202.78-29.6L202.78-29.6Q208.98-29.6 211.58-26.85L211.58-26.85 210.58-25.75Q208.18-28.1 202.98-28.1L202.98-28.1Q195.18-28.1 195.18-21.9L195.18-21.9Q195.18-19.5 197.08-18.07 198.98-16.65 201.71-15.9 204.43-15.15 207.16-14.33 209.88-13.5 211.78-11.68 213.68-9.85 213.68-6.9L213.68-6.9Q213.68-3.45 210.83-1.4 207.98 0.65 202.58 0.65L202.58 0.65Q199.93 0.65 197.36-0.05 194.78-0.75 193.53-2.1L193.53-2.1 194.53-3.2Q197.08-0.85 202.38-0.85L202.38-0.85Q207.23-0.85 209.71-2.65 212.18-4.45 212.18-6.85L212.18-6.85Q212.18-9.35 210.28-10.9 208.38-12.45 205.66-13.23 202.93-14 200.21-14.83 197.48-15.65 195.58-17.4 193.68-19.15 193.68-22L193.68-22Q193.68-25.85 196.26-27.73 198.83-29.6 202.78-29.6ZM217.23-29L239.73-29 239.73-27.5 229.23-27.5 229.23 0 227.73 0 227.73-27.5 217.23-27.5 217.23-29Z" fill="#ffccea" data-fill-palette-color="primary"></path></g></svg></g></svg></g></svg></g></svg></g><g><svg viewBox="0 0 125.72805571683891 91.48648412510565" height="91.48648412510565" width="125.72805571683891"><g><svg xmlns="http://www.w3.org/2000/svg" xmlns:xlink="http://www.w3.org/1999/xlink" version="1.1" x="0" y="0" viewBox="4.317 21.452 89.72399999999999 65.288" enable-background="new 0 0 100 100" xml:space="preserve" height="91.48648412510565" width="125.72805571683891" class="icon-icon-0" data-fill-palette-color="accent" id="icon-0"><path fill="none" d="M61.397 26.364c-15.292 0-27.732 12.441-27.732 27.732 0 15.292 12.441 27.732 27.732 27.732 15.292 0 27.732-12.441 27.732-27.732C89.13 38.805 76.689 26.364 61.397 26.364zM76.345 48.231l-2.518 1.467c0.504 1.419 0.774 2.891 0.774 4.393 0 2.638-0.781 5.192-2.259 7.387-0.908 1.35-2.049 2.508-3.367 3.43 0.45-0.041 0.84 0.281 0.888 0.727 0.047 0.449-0.278 0.853-0.729 0.9l-3.819 0.404c-0.028 0.003-0.058 0.004-0.086 0.004-0.294 0-0.568-0.158-0.714-0.418-0.16-0.285-0.135-0.639 0.064-0.898l2.346-3.059c0.274-0.358 0.788-0.427 1.147-0.151 0.28 0.215 0.376 0.574 0.276 0.893 1.016-0.765 1.916-1.677 2.636-2.746 1.295-1.924 1.979-4.161 1.979-6.473 0-1.212-0.199-2.403-0.575-3.555l-9.756 5.683c-0.388 0.227-0.814 0.334-1.233 0.334-0.845 0-1.668-0.437-2.124-1.22-0.683-1.172-0.286-2.675 0.886-3.358l13.712-7.987c1.171-0.683 2.676-0.287 3.358 0.886C77.914 46.045 77.517 47.548 76.345 48.231z"></path><path fill="#ffccea" d="M26.419 39.377H9.229c-0.904 0-1.637 0.732-1.637 1.637s0.732 1.637 1.637 1.637h17.19c0.904 0 1.637-0.732 1.637-1.637S27.323 39.377 26.419 39.377z" data-fill-palette-color="accent"></path><path fill="#ffccea" d="M5.954 51.372h17.19c0.904 0 1.637-0.732 1.637-1.637s-0.732-1.637-1.637-1.637H5.954c-0.904 0-1.637 0.732-1.637 1.637S5.05 51.372 5.954 51.372z" data-fill-palette-color="accent"></path><path fill="#ffccea" d="M5.954 60.094h17.19c0.904 0 1.637-0.732 1.637-1.637s-0.732-1.637-1.637-1.637H5.954c-0.904 0-1.637 0.732-1.637 1.637S5.05 60.094 5.954 60.094z" data-fill-palette-color="accent"></path><path fill="#ffccea" d="M9.229 68.814h17.19c0.904 0 1.637-0.732 1.637-1.637s-0.732-1.637-1.637-1.637H9.229c-0.904 0-1.637 0.732-1.637 1.637S8.324 68.814 9.229 68.814z" data-fill-palette-color="accent"></path><path d="M61.397 21.452c-18 0-32.644 14.644-32.644 32.644S43.398 86.74 61.397 86.74s32.644-14.644 32.644-32.644S79.397 21.452 61.397 21.452zM61.397 81.828c-15.292 0-27.732-12.441-27.732-27.732 0-15.292 12.441-27.732 27.732-27.732 15.292 0 27.732 12.441 27.732 27.732C89.13 69.388 76.689 81.828 61.397 81.828z" fill="#ffccea" data-fill-palette-color="accent"></path><path d="M73.873 43.987l-13.712 7.987c-1.172 0.683-1.569 2.186-0.886 3.358 0.456 0.783 1.279 1.22 2.124 1.22 0.42 0 0.845-0.108 1.233-0.334l9.756-5.683c0.376 1.152 0.575 2.343 0.575 3.555 0 2.312-0.685 4.549-1.979 6.473-0.72 1.069-1.62 1.981-2.636 2.746 0.1-0.318 0.004-0.677-0.276-0.893-0.359-0.275-0.873-0.207-1.147 0.151l-2.346 3.059c-0.199 0.26-0.225 0.613-0.064 0.898 0.146 0.26 0.42 0.418 0.714 0.418 0.028 0 0.058-0.001 0.086-0.004l3.819-0.404c0.45-0.048 0.775-0.451 0.729-0.9-0.047-0.446-0.437-0.768-0.888-0.727 1.318-0.922 2.459-2.079 3.367-3.43 1.478-2.194 2.259-4.749 2.259-7.387 0-1.502-0.27-2.974-0.774-4.393l2.518-1.467c1.172-0.683 1.569-2.186 0.886-3.358C76.549 43.701 75.044 43.304 73.873 43.987z" fill="#ffccea" data-fill-palette-color="accent"></path></svg></g></svg></g></svg></g><defs></defs></svg><rect width="395.52" height="67.39868595570077" fill="none" stroke="none" visibility="hidden"></rect></g></svg></g></svg>